<!-- Generated by IcoMoon.io -->
<svg version="1.1" xmlns="http://www.w3.org/2000/svg" width="32" height="32" viewBox="0 0 32 32">
<title>Client6</title>
<path fill="#afb1b8" d="M16.133 14.985c-0.075-0.11-0.111-0.239-0.103-0.37v-0.536c0-0.164 0.034-0.289 0.102-0.375s0.185-0.128 0.35-0.128c0.156 0 0.266 0.036 0.331 0.109 0.071 0.093 0.106 0.206 0.098 0.321v0.126h-0.278v-0.128c0.001-0.042-0.002-0.084-0.008-0.125-0.004-0.028-0.018-0.054-0.040-0.074-0.029-0.021-0.065-0.032-0.101-0.029-0.038-0.003-0.076 0.008-0.106 0.031-0.024 0.022-0.040 0.051-0.046 0.082-0.008 0.044-0.012 0.088-0.011 0.133v0.651c-0.004 0.063 0.008 0.126 0.036 0.183 0.014 0.019 0.033 0.035 0.056 0.044s0.047 0.013 0.072 0.010c0.036 0.003 0.071-0.008 0.099-0.029 0.023-0.021 0.037-0.049 0.041-0.079 0.006-0.043 0.009-0.087 0.009-0.13v-0.132h0.278v0.121c0.008 0.119-0.026 0.238-0.096 0.337-0.064 0.080-0.173 0.119-0.333 0.119s-0.281-0.043-0.35-0.131z"></path>
<path fill="#afb1b8" d="M17.292 14.99c-0.070-0.083-0.105-0.205-0.105-0.366v-0.564c0-0.159 0.035-0.28 0.105-0.362s0.188-0.123 0.353-0.122c0.164 0 0.281 0.041 0.351 0.122s0.106 0.202 0.106 0.362v0.564c0 0.159-0.036 0.281-0.107 0.365s-0.188 0.126-0.35 0.126-0.282-0.043-0.353-0.125zM17.774 14.855c0.025-0.052 0.037-0.11 0.033-0.167v-0.691c0.003-0.056-0.008-0.112-0.033-0.164-0.014-0.020-0.034-0.035-0.057-0.045s-0.048-0.013-0.073-0.010c-0.025-0.003-0.050 0-0.074 0.010s-0.043 0.025-0.057 0.045c-0.025 0.051-0.037 0.107-0.033 0.164v0.694c-0.003 0.057 0.008 0.115 0.033 0.167 0.016 0.018 0.036 0.032 0.059 0.041s0.047 0.015 0.072 0.015c0.025 0 0.049-0.005 0.072-0.015s0.042-0.024 0.059-0.041v-0.003z"></path>
<path fill="#afb1b8" d="M18.436 13.593h0.299l0.225 1.041 0.23-1.041h0.292l0.029 1.502h-0.215l-0.023-1.044-0.223 1.044h-0.173l-0.23-1.048-0.021 1.048h-0.218l0.027-1.502z"></path>
<path fill="#afb1b8" d="M19.848 13.593h0.467c0.269 0 0.403 0.142 0.403 0.427 0 0.272-0.141 0.408-0.425 0.408h-0.159v0.668h-0.288l0.002-1.502zM20.247 14.235c0.028 0.003 0.057 0.001 0.085-0.007s0.052-0.022 0.074-0.040c0.033-0.051 0.048-0.11 0.042-0.17 0.001-0.046-0.003-0.092-0.014-0.136-0.004-0.015-0.011-0.029-0.021-0.041s-0.022-0.023-0.036-0.030c-0.040-0.018-0.084-0.026-0.129-0.024h-0.112v0.449h0.112z"></path>
<path fill="#afb1b8" d="M21.134 13.593h0.309l0.317 1.502h-0.269l-0.063-0.346h-0.276l-0.065 0.346h-0.273l0.317-1.502zM21.398 14.575l-0.108-0.63-0.108 0.63h0.216z"></path>
<path fill="#afb1b8" d="M22.017 13.593h0.202l0.386 0.857v-0.857h0.239v1.502h-0.192l-0.388-0.894v0.894h-0.247l0.001-1.502z"></path>
<path fill="#afb1b8" d="M23.404 14.522l-0.321-0.927h0.27l0.196 0.596 0.184-0.596h0.264l-0.317 0.927v0.573h-0.276v-0.573z"></path>
<path fill="#afb1b8" d="M16.578 15.752v0.079h-0.235v0.61h-0.099v-0.61h-0.236v-0.079h0.57z"></path>
<path fill="#afb1b8" d="M17.315 16.441h-0.076c-0.008 0-0.015-0.002-0.021-0.007s-0.010-0.009-0.013-0.016l-0.068-0.164h-0.326l-0.068 0.164c-0.002 0.007-0.005 0.013-0.010 0.019-0.006 0.005-0.014 0.007-0.021 0.007h-0.076l0.288-0.689h0.1l0.292 0.686zM16.838 16.185h0.272l-0.115-0.28c-0.009-0.021-0.016-0.043-0.021-0.065-0.004 0.013-0.007 0.026-0.011 0.037l-0.010 0.029-0.114 0.28z"></path>
<path fill="#afb1b8" d="M17.812 16.373c0.018 0.001 0.036 0.001 0.054 0 0.016-0.002 0.031-0.004 0.046-0.008s0.028-0.007 0.041-0.013c0.013-0.005 0.025-0.011 0.039-0.017v-0.155h-0.115c-0.003 0-0.006-0-0.008-0.001s-0.005-0.002-0.007-0.004c-0.002-0.002-0.003-0.003-0.004-0.006s-0.001-0.005-0.001-0.007v-0.053h0.224v0.264c-0.018 0.012-0.038 0.023-0.058 0.033s-0.042 0.017-0.064 0.023c-0.024 0.007-0.048 0.011-0.072 0.014-0.028 0.003-0.056 0.004-0.084 0.004-0.050 0-0.099-0.008-0.145-0.026-0.043-0.016-0.082-0.041-0.115-0.072s-0.057-0.068-0.074-0.109c-0.018-0.046-0.027-0.094-0.026-0.143-0.001-0.049 0.008-0.098 0.026-0.144 0.017-0.041 0.042-0.078 0.074-0.109s0.072-0.055 0.115-0.071c0.049-0.018 0.102-0.026 0.154-0.026 0.027-0 0.054 0.002 0.080 0.006 0.023 0.004 0.046 0.009 0.069 0.017 0.020 0.007 0.039 0.016 0.058 0.027s0.035 0.023 0.050 0.036l-0.028 0.043c-0.002 0.004-0.005 0.007-0.009 0.009s-0.008 0.004-0.013 0.004c-0.006-0-0.013-0.002-0.018-0.005-0.009-0.004-0.018-0.010-0.028-0.016-0.012-0.007-0.025-0.013-0.039-0.019-0.017-0.007-0.035-0.012-0.053-0.015-0.024-0.004-0.049-0.006-0.073-0.006-0.038-0-0.076 0.006-0.111 0.019-0.032 0.012-0.061 0.031-0.085 0.055-0.024 0.025-0.042 0.054-0.054 0.086-0.026 0.075-0.026 0.155 0 0.23 0.013 0.032 0.032 0.062 0.058 0.087 0.024 0.024 0.052 0.042 0.084 0.055 0.037 0.012 0.075 0.017 0.114 0.014z"></path>
<path fill="#afb1b8" d="M18.73 16.362h0.315v0.079h-0.411v-0.689h0.099l-0.002 0.61z"></path>
<path fill="#afb1b8" d="M19.372 16.441h-0.099v-0.689h0.099v0.689z"></path>
<path fill="#afb1b8" d="M19.738 15.755c0.006 0.003 0.011 0.007 0.015 0.013l0.421 0.519c-0.001-0.008-0.001-0.016 0-0.025s0-0.015 0-0.022v-0.491h0.086v0.692h-0.050c-0.007 0.001-0.015-0.001-0.021-0.004s-0.011-0.008-0.015-0.013l-0.421-0.519c0 0.008 0 0.016 0 0.023s0 0.015 0 0.021v0.491h-0.082v-0.689h0.051c0.006 0 0.011 0.001 0.016 0.003z"></path>
<path fill="#afb1b8" d="M20.986 15.752v0.076h-0.349v0.227h0.283v0.073h-0.283v0.235h0.349v0.076h-0.451v-0.687h0.451z"></path>
<path fill="#afb1b8" d="M10.661 11.497l4.375 1.176v4.121l-4.375-1.175v-4.121zM10.381 11.146v4.673l4.935 1.327v-4.672l-4.935-1.328z"></path>
<path fill="#afb1b8" d="M13.026 19.315l-4.936-1.328v-4.672l4.936 1.328v4.673z"></path>
<path fill="#afb1b8" d="M10.463 11.444l4.318 1.161-1.836 1.739-4.318-1.162 1.837-1.738zM10.381 11.146l-2.291 2.169 4.936 1.328 2.29-2.169-4.935-1.328z"></path>
<path fill="#afb1b8" d="M13.304 19.052l2.013-1.906-2.013-0.542v2.447z"></path>
</svg>
